<svg width="1024" height="1024" viewBox="0 0 200 200" xmlns="http://www.w3.org/2000/svg"><rect x="44" y="30" width="100" height="140" rx="10" fill="#FFFFFF"></rect><rect x="44" y="30" width="100" height="140" rx="10" stroke="#3182F6" stroke-width="3" stroke-linecap="round" stroke-linejoin="round" fill="none"></rect><defs><clipPath id="listclip"><rect x="44" y="30" width="100" height="140" rx="10"></rect></clipPath></defs><rect x="44" y="30" width="100" height="18" fill="#3182F6" clip-path="url(#listclip)"></rect><g stroke="#FFFFFF" stroke-width="3" stroke-linecap="round" stroke-linejoin="round" fill="none" opacity="0.8"><line x1="54" y1="39" x2="76" y2="39"></line></g><g transform="translate(54 60)"><rect x="0" y="0" width="12" height="12" rx="3" fill="#3182F6"></rect><path d="M 3 6.5 L 5.5 9 L 9.5 4" stroke="#FFFFFF" stroke-width="2" fill="none" stroke-linecap="round" stroke-linejoin="round"></path><line x1="20" y1="6" x2="76" y2="6" stroke="#3182F6" stroke-width="3" stroke-linecap="round" fill="none" opacity="0.35"></line></g><g transform="translate(54 82)"><rect x="0" y="0" width="12" height="12" rx="3" fill="#3182F6"></rect><path d="M 3 6.5 L 5.5 9 L 9.5 4" stroke="#FFFFFF" stroke-width="2" fill="none" stroke-linecap="round" stroke-linejoin="round"></path><line x1="20" y1="6" x2="68" y2="6" stroke="#3182F6" stroke-width="3" stroke-linecap="round" fill="none" opacity="0.35"></line></g><g transform="translate(54 104)"><rect x="0" y="0" width="12" height="12" rx="3" fill="none" stroke="#3182F6" stroke-width="2" stroke-linecap="round" stroke-linejoin="round"></rect><line x1="20" y1="6" x2="50" y2="6" stroke="#3182F6" stroke-width="3" stroke-linecap="round" fill="none" opacity="0.6"></line><line x1="53" y1="1" x2="53" y2="11" stroke="#3182F6" stroke-width="2" stroke-linecap="round"></line></g><g transform="translate(54 126)"><rect x="0" y="0" width="12" height="12" rx="3" fill="none" stroke="#3182F6" stroke-width="2" stroke-linecap="round" stroke-linejoin="round" opacity="0.4"></rect><line x1="20" y1="6" x2="60" y2="6" stroke="#3182F6" stroke-width="3" stroke-linecap="round" fill="none" opacity="0.2"></line></g><g transform="translate(108 88) rotate(35)"><rect x="0" y="0" width="46" height="9" rx="2" fill="#FFB800"></rect><rect x="0" y="0" width="46" height="9" rx="2" stroke="#3182F6" stroke-width="2" stroke-linecap="round" stroke-linejoin="round" fill="none"></rect><line x1="32" y1="0" x2="32" y2="9" stroke="#3182F6" stroke-width="2" stroke-linecap="round"></line><path d="M 46 0 L 54 4.5 L 46 9 Z" fill="#FFFFFF" stroke="#3182F6" stroke-width="2" stroke-linecap="round" stroke-linejoin="round"></path><rect x="0" y="0" width="6" height="9" rx="2" fill="#F04452"></rect><line x1="6" y1="0" x2="6" y2="9" stroke="#3182F6" stroke-width="2" stroke-linecap="round"></line></g></svg>